<?xml version="1.0" encoding="UTF-8" standalone="no"?>
<!-- Generator: Adobe Illustrator 14.0.0, SVG Export Plug-In . SVG Version: 6.00 Build 43363)  -->
<!DOCTYPE svg  PUBLIC '-//W3C//DTD SVG 1.1//EN'  'http://www.w3.org/Graphics/SVG/1.1/DTD/svg11.dtd'>
<svg id="Shape_1_copy_32_1_" xmlns="http://www.w3.org/2000/svg" xml:space="preserve" height="65px" viewBox="0 0 55 65" width="55px" version="1.1" y="0px" x="0px" xmlns:xlink="http://www.w3.org/1999/xlink" enable-background="new 0 0 55 65">
<linearGradient id="lgrad" y1="100%">
<stop stop-color="#4157d8" offset="0"/>
<stop stop-color="#48b6e9" offset="1"/>
</linearGradient>
	<g id="Shape_1_copy_32">
			<path fill="url(#lgrad)" clip-rule="evenodd" d="m24.192 32.88c0.051 0.011 0.101 0.017 0.15 0.017 0.317 0 0.602-0.219 0.673-0.541 0.055-0.246 1.285-5.854 1.387-11.193h0.701v11.044c0 0.381 0.309 0.69 0.69 0.69s0.69-0.31 0.69-0.69v-11.735c0-0.381-0.31-0.689-0.69-0.689h-1.619c-0.157-0.398-0.378-1.057-0.437-1.737l2.056-1.542 2.057 1.542c-0.094 1.082-0.598 2.107-0.604 2.119-0.048 0.096-0.072 0.202-0.072 0.308 0 5.534 1.34 11.627 1.396 11.884 0.071 0.322 0.357 0.541 0.674 0.541 0.049 0 0.1-0.006 0.15-0.017 0.371-0.083 0.605-0.452 0.523-0.824-0.014-0.061-1.338-6.085-1.363-11.431 0.191-0.428 0.689-1.656 0.689-2.914 0-0.218-0.102-0.422-0.275-0.552l-2.485-1.864v-3.105c0-0.381-0.309-0.69-0.69-0.69s-0.69 0.31-0.69 0.69v3.105l-2.485 1.864c-0.174 0.13-0.276 0.334-0.276 0.552 0 1.265 0.498 2.486 0.688 2.907-0.024 5.344-1.348 11.377-1.362 11.438-0.083 0.371 0.152 0.74 0.524 0.823zm-2.611 2.087h1.21c-0.697 2.923-1.815 5.188-1.828 5.213-0.17 0.342-0.032 0.756 0.309 0.926 0.1 0.05 0.205 0.073 0.309 0.073 0.252 0 0.496-0.14 0.618-0.382 0.055-0.109 1.285-2.596 2.011-5.83h1.342l-1.193 5.372c-0.083 0.372 0.152 0.74 0.524 0.823 0.05 0.011 0.101 0.017 0.15 0.017 0.317 0 0.602-0.219 0.673-0.54l1.261-5.672h1.653l1.262 5.672c0.07 0.321 0.356 0.54 0.672 0.54 0.051 0 0.101-0.005 0.15-0.017 0.373-0.083 0.607-0.451 0.525-0.823l-1.194-5.372h1.342c0.726 3.234 1.956 5.721 2.012 5.83 0.12 0.242 0.364 0.382 0.618 0.382 0.103 0 0.209-0.023 0.307-0.073 0.342-0.17 0.48-0.584 0.311-0.926-0.013-0.024-1.131-2.29-1.829-5.213h1.212c0.381 0 0.689-0.31 0.689-0.69s-0.309-0.69-0.689-0.69h-12.427c-0.381 0-0.69 0.31-0.69 0.69s0.309 0.69 0.69 0.69zm26.229 16.565h-7.905c-0.609-0.964-2.555-4.168-4.201-8.282h1.063c0.383 0 0.691-0.31 0.691-0.69s-0.309-0.69-0.691-0.69h-17.947c-0.381 0-0.69 0.31-0.69 0.69s0.309 0.69 0.69 0.69h1.062c-1.644 4.108-3.591 7.317-4.2 8.282h-7.906c-0.381 0-0.69 0.31-0.69 0.69s0.309 0.689 0.69 0.689h40.034c0.382 0 0.69-0.309 0.69-0.689s-0.309-0.69-0.69-0.69zm-25.539 0c0-3.045 2.477-5.521 5.521-5.521 3.045 0 5.521 2.477 5.521 5.521h-11.042zm12.424 0c0-3.806-3.096-6.902-6.902-6.902s-6.902 3.097-6.902 6.902h-3.585c0.919-1.524 2.615-4.549 4.058-8.282h12.859c1.443 3.733 3.139 6.758 4.058 8.282h-3.586z" fill-rule="evenodd"/>
	</g>
	<rect height="65" width="55" fill="none" clip-rule="evenodd" fill-rule="evenodd"/>
</svg>
