<?xml version="1.0" encoding="UTF-8" standalone="no"?>
<!-- Generator: Adobe Illustrator 14.0.0, SVG Export Plug-In . SVG Version: 6.00 Build 43363)  -->
<!DOCTYPE svg  PUBLIC '-//W3C//DTD SVG 1.1//EN'  'http://www.w3.org/Graphics/SVG/1.1/DTD/svg11.dtd'>
<svg id="Shape_1_1_" xmlns="http://www.w3.org/2000/svg" xml:space="preserve" height="65px" viewBox="0 0 55 65" width="55px" version="1.1" y="0px" x="0px" xmlns:xlink="http://www.w3.org/1999/xlink" enable-background="new 0 0 55 65">
<linearGradient id="lgrad" y1="100%">
<stop stop-color="#4157d8" offset="0"/>
<stop stop-color="#48b6e9" offset="1"/>
</linearGradient>
	<g id="Shape_1">
			<path fill="url(#lgrad)" clip-rule="evenodd" d="m5.931 29.396v2.998c0 0.412 0.333 0.746 0.745 0.746s0.745-0.334 0.745-0.746v-3.828l0.745-0.497 0.745 0.497v3.828c0 0.412 0.333 0.746 0.745 0.746s0.745-0.334 0.745-0.746v-2.984c0.241 0 0.476-0.117 0.62-0.332 0.228-0.344 0.136-0.807-0.206-1.035l-1.905-1.271v-1.092c0-0.411-0.333-0.746-0.745-0.746s-0.745 0.335-0.745 0.746v1.093l-1.902 1.271c-0.342 0.229-0.435 0.691-0.207 1.035 0.144 0.214 0.38 0.316 0.62 0.317zm14.896 1.505h13.406c0.197 0 0.387-0.078 0.526-0.218 0.161-0.161 0.963-1.087 0.963-3.512 0-2.613-3.169-5.661-7.447-7.237v-4.699c0-0.412-0.334-0.746-0.745-0.746s-0.745 0.334-0.745 0.746v4.699c-4.279 1.576-7.448 4.624-7.448 7.237 0 2.425 0.802 3.351 0.963 3.512 0.139 0.14 0.329 0.218 0.527 0.218zm6.702-9.655c4.146 1.453 6.703 4.184 6.703 5.926 0 1.218-0.24 1.91-0.402 2.238h-12.601c-0.162-0.328-0.402-1.021-0.402-2.238 0-1.742 2.555-4.473 6.702-5.926zm17.13 8.15v2.998c0 0.412 0.333 0.746 0.745 0.746 0.411 0 0.744-0.334 0.744-0.746v-3.828l0.744-0.497 0.746 0.497v3.828c0 0.412 0.332 0.746 0.744 0.746s0.744-0.334 0.744-0.746v-2.984c0.241 0 0.477-0.117 0.62-0.332 0.229-0.344 0.136-0.807-0.206-1.035l-1.902-1.271v-1.092c0-0.411-0.334-0.746-0.746-0.746-0.411 0-0.744 0.335-0.744 0.746v1.093l-1.902 1.271c-0.343 0.229-0.436 0.691-0.207 1.035 0.143 0.214 0.379 0.317 0.62 0.317zm4.468 19.411v-5.969c0.412 0 0.746-0.334 0.746-0.746 0-0.411-0.334-0.746-0.746-0.746h-4.468c-0.412 0-0.745 0.335-0.745 0.746 0 0.412 0.333 0.746 0.745 0.746v5.969h-1.489v-15.667c0-0.411-0.334-0.745-0.745-0.745-0.412 0-0.745 0.334-0.745 0.745v0.746h-0.993c-0.707-1.547-2.008-2.375-2.73-2.729v-2.493c0-0.412-0.333-0.746-0.745-0.746-0.411 0-0.744 0.334-0.744 0.746v2.983c0 0.322 0.205 0.606 0.51 0.708 0.015 0.006 1.207 0.418 2.003 1.53h-5.491v-1.492c0-0.411-0.334-0.746-0.745-0.746-0.412 0-0.745 0.335-0.745 0.746v2.238c0 0.412 0.333 0.746 0.745 0.746h8.937v13.428h-0.744v-2.983c0-0.412-0.334-0.746-0.745-0.746s-0.745 0.334-0.745 0.746v2.983h-1.489v-2.237c0-1.12-1.455-1.937-1.901-2.16-0.209-0.104-0.457-0.104-0.666 0-0.445 0.224-1.901 1.04-1.901 2.16v2.237h-1.489v-11.189c0-1.854-3.209-3.283-4.191-3.678-0.179-0.069-0.375-0.069-0.554 0-0.983 0.395-4.192 1.824-4.192 3.678v11.189h-1.489v-2.237c0-1.12-1.456-1.937-1.901-2.16-0.209-0.104-0.457-0.104-0.666 0-0.446 0.224-1.901 1.04-1.901 2.16v2.237h-1.49v-2.983c0-0.412-0.333-0.746-0.745-0.746s-0.745 0.334-0.745 0.746v2.983h-0.745v-13.427h8.937c0.411 0 0.745-0.334 0.745-0.746v-2.238c0-0.411-0.333-0.746-0.745-0.746s-0.745 0.335-0.745 0.746v1.492h-5.489c0.796-1.101 1.988-1.525 2-1.53 0.305-0.102 0.51-0.386 0.51-0.708v-2.983c0-0.412-0.334-0.746-0.745-0.746s-0.745 0.334-0.745 0.746v2.493c-0.722 0.354-2.022 1.182-2.731 2.729h-0.993v-0.747c0-0.411-0.333-0.745-0.745-0.745s-0.745 0.334-0.745 0.745v15.667h-1.492v-5.969c0.411 0 0.745-0.334 0.745-0.746 0-0.411-0.333-0.746-0.745-0.746h-4.469c-0.411 0-0.745 0.335-0.745 0.746 0 0.412 0.333 0.746 0.745 0.746v5.969c-0.411 0-0.745 0.334-0.745 0.745 0 0.412 0.333 0.746 0.745 0.746h43.196c0.412 0 0.745-0.334 0.745-0.746 0-0.411-0.333-0.745-0.745-0.745zm-40.217 0h-1.489v-5.969h1.489v5.969zm11.172 0h-1.49l-0.003-2.206c0.044-0.143 0.375-0.431 0.749-0.667 0.374 0.235 0.703 0.516 0.745 0.635v2.238zm10.426 0h-5.958v-11.19c0-0.486 1.388-1.49 2.979-2.177 1.592 0.687 2.979 1.69 2.979 2.177v11.19zm5.959 0h-1.49l-0.004-2.206c0.045-0.143 0.375-0.431 0.749-0.667 0.374 0.235 0.703 0.516 0.745 0.635v2.238zm11.172 0h-1.49v-5.969h1.49v5.969zm-41.708-13.429v4.476c0 0.412 0.333 0.746 0.745 0.746s0.745-0.334 0.745-0.746v-4.476h1.489v4.476c0 0.412 0.334 0.746 0.745 0.746s0.745-0.334 0.745-0.746v-4.476c0.411 0 0.745-0.334 0.745-0.746 0-0.411-0.333-0.746-0.745-0.746h-4.469c-0.411 0-0.745 0.335-0.745 0.746 0.001 0.412 0.334 0.746 0.745 0.746zm8.193 2.984v3.729c0 0.412 0.333 0.746 0.745 0.746s0.745-0.334 0.745-0.746v-3.729c0-0.412-0.334-0.746-0.745-0.746s-0.745 0.334-0.745 0.746zm6.703 4.476c0.411 0 0.745-0.334 0.745-0.746v-2.983c0-1.12-1.455-1.937-1.901-2.16-0.209-0.104-0.457-0.104-0.666 0-0.446 0.224-1.901 1.04-1.901 2.16v2.983c0 0.412 0.333 0.746 0.745 0.746s0.745-0.334 0.745-0.746l-0.003-2.951c0.044-0.143 0.375-0.43 0.749-0.668 0.374 0.236 0.703 0.517 0.745 0.636v2.983c-0.003 0.412 0.331 0.746 0.742 0.746zm16.384 0c0.412 0 0.745-0.334 0.745-0.746v-2.983c0-1.12-1.455-1.937-1.901-2.16-0.209-0.104-0.457-0.104-0.666 0-0.446 0.224-1.901 1.04-1.901 2.16v2.983c0 0.412 0.333 0.746 0.745 0.746s0.744-0.334 0.744-0.746l-0.004-2.951c0.045-0.143 0.375-0.43 0.749-0.668 0.374 0.236 0.703 0.517 0.745 0.636v2.983c0 0.412 0.332 0.746 0.744 0.746zm2.979 0c0.411 0 0.745-0.334 0.745-0.746v-3.729c0-0.412-0.334-0.746-0.745-0.746s-0.745 0.334-0.745 0.746v3.729c0 0.412 0.334 0.746 0.745 0.746zm4.469-7.46v4.476c0 0.412 0.333 0.746 0.745 0.746 0.411 0 0.744-0.334 0.744-0.746v-4.476h1.49v4.476c0 0.412 0.332 0.746 0.744 0.746s0.744-0.334 0.744-0.746v-4.476c0.412 0 0.745-0.334 0.745-0.746 0-0.411-0.333-0.746-0.745-0.746h-4.468c-0.412 0-0.745 0.335-0.745 0.746 0.001 0.412 0.334 0.746 0.746 0.746z" fill-rule="evenodd"/>
	</g>
	<rect width="55" height="65" fill="none"/>
</svg>
