<?xml version="1.0" encoding="UTF-8" standalone="no"?>
<!-- Generator: Adobe Illustrator 14.0.0, SVG Export Plug-In . SVG Version: 6.00 Build 43363)  -->
<!DOCTYPE svg  PUBLIC '-//W3C//DTD SVG 1.1//EN'  'http://www.w3.org/Graphics/SVG/1.1/DTD/svg11.dtd'>
<svg id="Forma_1_copy_4_1_" xmlns="http://www.w3.org/2000/svg" xml:space="preserve" height="65px" viewBox="0 0 55 65" width="55px" version="1.1" y="0px" x="0px" xmlns:xlink="http://www.w3.org/1999/xlink" enable-background="new 0 0 55 65">
<linearGradient id="lgrad" y1="100%">
<stop stop-color="#4157d8" offset="0"/>
<stop stop-color="#48b6e9" offset="1"/>
</linearGradient>
	<g id="Forma_1_copy_4">
			<path fill="url(#lgrad)" clip-rule="evenodd" d="m27.316 13.422c0.817 0 1.48-0.671 1.48-1.499s-0.663-1.498-1.48-1.498c-0.818 0-1.481 0.67-1.481 1.498s0.663 1.499 1.481 1.499zm0 34.436c-0.817 0-1.479 0.67-1.479 1.496s0.662 1.497 1.479 1.497c0.816 0 1.479-0.671 1.479-1.497s-0.662-1.496-1.479-1.496zm-17.013-17.221c0-0.826-0.661-1.497-1.479-1.497-0.816 0-1.479 0.671-1.479 1.497 0 0.827 0.663 1.496 1.479 1.496 0.818 0 1.479-0.669 1.479-1.496zm35.509-1.497c-0.819 0-1.482 0.672-1.482 1.5 0 0.827 0.663 1.498 1.482 1.498 0.815 0 1.479-0.671 1.479-1.498 0-0.828-0.664-1.5-1.479-1.5zm-35.426-4.531c0.817 0 1.481-0.671 1.481-1.499 0-0.829-0.664-1.499-1.481-1.499-0.818 0-1.481 0.67-1.481 1.499 0 0.828 0.662 1.499 1.481 1.499zm33.86 12.069c-0.814 0-1.475 0.667-1.475 1.493s0.66 1.493 1.475 1.493c0.816 0 1.478-0.667 1.478-1.493s-0.661-1.493-1.478-1.493zm-30.029-17.75c0.819 0 1.481-0.672 1.481-1.499 0-0.828-0.663-1.499-1.481-1.499s-1.481 0.671-1.481 1.499c0 0.827 0.663 1.499 1.481 1.499zm26.204 23.423c-0.818 0-1.479 0.672-1.479 1.498s0.661 1.496 1.479 1.496c0.816 0 1.478-0.67 1.478-1.496s-0.662-1.498-1.478-1.498zm-20.431-27.405c0.815 0 1.477-0.669 1.477-1.494s-0.662-1.494-1.477-1.494c-0.816 0-1.477 0.669-1.477 1.494s0.661 1.494 1.477 1.494zm13.17 32.878c0 0.826 0.664 1.498 1.482 1.498s1.482-0.672 1.482-1.498c0-0.828-0.664-1.497-1.482-1.497s-1.482 0.669-1.482 1.497zm1.669-32.792c0.815 0 1.479-0.669 1.479-1.496 0-0.826-0.664-1.497-1.479-1.497-0.816 0-1.479 0.671-1.479 1.497 0 0.827 0.663 1.496 1.479 1.496zm-13.542 32.709c0-0.829-0.664-1.5-1.481-1.5-0.818 0-1.481 0.671-1.481 1.5 0 0.828 0.663 1.5 1.481 1.5s1.481-0.672 1.481-1.5zm18.937-29.009c0.816 0 1.479-0.672 1.479-1.499 0-0.828-0.663-1.499-1.479-1.499-0.82 0-1.481 0.671-1.481 1.499-0.001 0.828 0.66 1.499 1.481 1.499zm-24.326 25.312c0-0.826-0.663-1.498-1.481-1.498-0.817 0-1.481 0.672-1.481 1.498 0 0.83 0.664 1.5 1.481 1.5 0.818 0 1.481-0.67 1.481-1.5zm28.315-19.52c0.816 0 1.478-0.669 1.478-1.496 0-0.826-0.661-1.496-1.478-1.496s-1.479 0.67-1.479 1.496c0 0.827 0.662 1.496 1.479 1.496zm-33.786 12.226c-0.818 0-1.481 0.67-1.481 1.498 0 0.826 0.663 1.498 1.481 1.498 0.817 0 1.481-0.672 1.481-1.498 0-0.828-0.663-1.498-1.481-1.498zm20.631 9.457c2.758-0.69 5.296-2.111 7.354-4.196 6.159-6.231 6.159-16.361 0-22.588-2.973-3.014-6.938-4.677-11.155-4.677-4.213 0-8.178 1.663-11.157 4.679-2.982 3.016-4.626 7.026-4.626 11.293 0 4.268 1.642 8.279 4.626 11.293 2.057 2.083 4.592 3.502 7.348 4.196l-1.341 6.472h-7.002v2.324h24.38v-2.324h-7.086l-1.341-6.472zm-0.395-1.9l-0.282-1.361c0.582-0.146 1.161-0.306 1.713-0.535l0.551 1.271c-0.637 0.266-1.309 0.448-1.982 0.625zm-2.343-12.853l9.415 4.2c-0.542 1.171-1.262 2.237-2.139 3.156l-7.276-7.356zm6.94 7.704c-0.91 0.883-1.965 1.615-3.123 2.162l-4.003-9.181-0.048-0.246 7.174 7.265zm-6.826-8.178c0-0.008 0.002-0.014 0.002-0.023h10.384c-0.01 0.321-0.022 0.639-0.049 0.951-0.006 0.052-0.017 0.103-0.025 0.153-0.043 0.344-0.086 0.681-0.15 1.016-0.004 0.009-0.006 0.016-0.009 0.022-0.147 0.735-0.368 1.449-0.65 2.125l-9.503-4.244zm0.003-0.501v-0.002c0-0.009-0.002-0.016-0.002-0.025l9.502-4.239c0.269 0.656 0.479 1.342 0.63 2.052 0.007 0.037 0.018 0.068 0.025 0.103 0.064 0.313 0.107 0.629 0.145 0.946 0.01 0.072 0.027 0.146 0.035 0.224 0.031 0.309 0.044 0.627 0.049 0.942h-10.384zm-0.117-0.5l7.276-7.364c0.877 0.925 1.597 1.991 2.139 3.162l-9.415 4.202zm-0.342-0.333l4.156-9.534c1.159 0.548 2.211 1.28 3.126 2.166l-7.282 7.368zm-0.464-0.121c-0.007-0.002-0.013-0.005-0.02-0.005v-10.502c0.314 0.006 0.625 0.013 0.934 0.049 0.078 0.008 0.146 0.025 0.23 0.037 0.31 0.038 0.621 0.079 0.924 0.142 0.027 0.005 0.055 0.017 0.09 0.024 0.704 0.15 1.386 0.366 2.031 0.644l-4.189 9.611zm1.539 12.712c-0.516 0.084-1.027 0.171-1.559 0.18v-7.691l1.559 7.511zm0.193 0.94l0.282 1.357c-0.668 0.111-1.344 0.22-2.035 0.229v-1.387c0.597-0.009 1.179-0.108 1.753-0.199zm-0.635-8.755l3.097 7.104c-0.489 0.209-1.007 0.34-1.524 0.48l-1.573-7.584zm4.46 9.05l-0.552-1.271c1.242-0.581 2.396-1.375 3.408-2.364l0.969 0.98c-1.134 1.119-2.427 1.999-3.825 2.655zm4.163-2.993l-0.971-0.982c0.98-1.023 1.763-2.19 2.342-3.454l1.246 0.559c-0.636 1.396-1.501 2.712-2.617 3.877zm2.815-4.314l-1.238-0.554c0.311-0.754 0.541-1.539 0.707-2.341v-0.003c0.074-0.365 0.127-0.733 0.168-1.104 0.006-0.054 0.018-0.109 0.022-0.16 0.036-0.348 0.05-0.698 0.054-1.049h1.359c-0.023 1.779-0.387 3.547-1.072 5.211zm1.076-5.688h-1.363c-0.004-0.349-0.018-0.696-0.051-1.043-0.008-0.072-0.021-0.144-0.029-0.214-0.047-0.351-0.09-0.702-0.16-1.049-0.006-0.022-0.014-0.046-0.018-0.069-0.162-0.782-0.396-1.548-0.701-2.279l1.246-0.557c0.685 1.67 1.049 3.432 1.076 5.211zm-1.273-5.642l-1.246 0.555c-0.579-1.26-1.366-2.426-2.344-3.453l0.971-0.981c1.112 1.167 1.982 2.482 2.619 3.879zm-2.956-4.219l-0.969 0.981c-1.014-0.99-2.166-1.782-3.412-2.37l0.547-1.269c1.407 0.655 2.7 1.545 3.834 2.658zm-9.406-3.943h0.003c1.795 0.033 3.538 0.397 5.147 1.083l-0.547 1.27c-0.721-0.308-1.471-0.538-2.242-0.7-0.027-0.007-0.05-0.016-0.081-0.021-0.337-0.07-0.675-0.117-1.019-0.159-0.076-0.009-0.149-0.026-0.229-0.033-0.344-0.038-0.69-0.052-1.033-0.056v-1.384zm-0.474 0v1.386c-0.343 0.005-0.689 0.018-1.032 0.054-0.048 0.007-0.094 0.016-0.142 0.02-1.185 0.136-2.34 0.431-3.418 0.894l-0.556-1.268c1.612-0.684 3.352-1.056 5.148-1.086zm-0.825 13.306l-9.414-4.199c0.543-1.174 1.268-2.238 2.138-3.163l7.276 7.362zm-6.941-7.701c0.914-0.886 1.968-1.618 3.128-2.166l4.153 9.527-7.281-7.361zm6.829 8.178c-0.002 0.007-0.002 0.016-0.002 0.022h-10.378c0.002-0.317 0.011-0.637 0.043-0.951 0.004-0.053 0.018-0.102 0.024-0.155 0.127-1.106 0.398-2.17 0.809-3.16l9.504 4.244zm-0.002 0.499c0 0.01 0.002 0.017 0.002 0.022l-9.503 4.243c-0.278-0.676-0.496-1.379-0.646-2.111-0.002-0.014-0.007-0.023-0.009-0.035-0.067-0.322-0.111-0.646-0.145-0.973-0.008-0.068-0.024-0.133-0.03-0.2-0.035-0.31-0.044-0.627-0.048-0.946h10.379zm0.114 0.499l-7.276 7.361c-0.873-0.919-1.598-1.985-2.14-3.156l9.416-4.205zm0.223 0.457l-0.057 0.275-3.977 9.134c-1.163-0.545-2.212-1.279-3.125-2.162l7.159-7.247zm-0.528 2.538l-1.566 7.553c-0.519-0.139-1.035-0.271-1.518-0.477l3.084-7.076zm-0.629 8.728c0.581 0.096 1.164 0.19 1.759 0.202v1.385c-0.694-0.01-1.369-0.12-2.042-0.229l0.283-1.358zm0.193-0.942l1.566-7.541v7.723c-0.534-0.009-1.049-0.098-1.566-0.182zm1.545-12.71l-4.19-9.615c0.985-0.419 2.037-0.697 3.139-0.822 0.048-0.005 0.094-0.014 0.142-0.021 0.303-0.032 0.62-0.041 0.931-0.049v10.503c-0.009 0.002-0.016 0.002-0.022 0.004zm-5.554-11.559l0.554 1.266c-1.247 0.586-2.398 1.376-3.415 2.37l-0.966-0.985c1.136-1.114 2.428-2.004 3.827-2.651zm-4.163 2.993l0.967 0.98c-0.978 1.029-1.761 2.19-2.342 3.453l-1.249-0.558c0.648-1.42 1.522-2.729 2.624-3.875zm-2.824 4.305l1.251 0.559c-0.307 0.745-0.543 1.527-0.707 2.324 0 0.006-0.002 0.014-0.005 0.02-0.073 0.363-0.125 0.728-0.167 1.096-0.004 0.056-0.019 0.11-0.023 0.169-0.037 0.347-0.048 0.693-0.053 1.046h-1.371c0.028-1.822 0.393-3.582 1.075-5.214zm-1.075 5.691h1.369c0.006 0.351 0.016 0.699 0.052 1.046 0.009 0.069 0.024 0.142 0.035 0.214 0.037 0.353 0.087 0.699 0.153 1.049 0.007 0.022 0.014 0.046 0.016 0.064 0.166 0.783 0.398 1.55 0.699 2.278l-1.251 0.559c-0.68-1.63-1.045-3.388-1.073-5.21zm1.277 5.649l1.251-0.561c0.578 1.262 1.36 2.429 2.339 3.457l-0.969 0.979c-1.101-1.151-1.975-2.458-2.621-3.875zm2.957 4.213l0.966-0.98c1.015 0.989 2.165 1.778 3.413 2.364l-0.551 1.267c-1.399-0.652-2.691-1.534-3.828-2.651zm4.255 2.86l0.552-1.271c0.547 0.234 1.128 0.386 1.705 0.535l-0.283 1.357c-0.67-0.168-1.341-0.354-1.974-0.621zm1.417 9.002l1.294-6.233c0.875 0.149 1.771 0.242 2.68 0.242 0.905 0 1.793-0.093 2.665-0.242l1.293 6.233h-7.932z" fill-rule="evenodd"/>
	</g>
	<rect height="65" width="55" fill="none" clip-rule="evenodd" fill-rule="evenodd"/>
</svg>
